# xmcd
#
# Track frame offsets: 
#        150
#        29550
#        49542
#        69094
#        85413
#        107831
#        120413
#        138974
#        154743
#        166658
#        177883
#        188528
#        206888
#        228002
#        241286
#        255526
#        299783
#        324941
#        335175
#        348494
#
# Disc length: 4768 seconds
#
# Revision: 0
# Processed by: cddbd v1.5.2PL0 Copyright (c) Steve Scherf et al.
# Submitted via: ExactAudioCopy v1.0b4
#
DISCID=19129e14
DTITLE=Various Artist - A Different Kind of Blues [CD1]
DYEAR=2012
DGENRE=Blues
TTITLE0=Muddy Waters - She's Alright
TTITLE1=T-Model Ford - Sugar Farm
TTITLE2=Johnny Jenkins - Leaving Trunk
TTITLE3=T-Rex - Mambo Sun
TTITLE4=R.L. Burnside - It's Bad You Know
TTITLE5=Albert King - Cold Feet
TTITLE6=Howlin' Wolf - Evil
TTITLE7=Junior Kimbrough - I Cried Last Night
TTITLE8=Danny James - Boogie in the Mud
TTITLE9=The Raunch Hands - Commotion
TTITLE10=F.L. Wray and The Moonmen - Some Kind of Nut
TTITLE11=Fred and Annie Mae McDowell - I'm In Jail Again
TTITLE12=Danny Kalb and Stefan Grossman - Death Letter Blues
TTITLE13=Moloch - Going Down
TTITLE14=Blackrock - Blackrock Yeah Yeah
TTITLE15=Captain Beefheart and His Magic Band - 25th Century Quaker
TTITLE16=Dr John - Gris-Gris Gumbo Ya Ya
TTITLE17=Pete Drake - The Spook
TTITLE18=Mickey and Sylvia - Dearest
TTITLE19=The Invincibles - Heart Full of Love
EXTD=
EXTT0=
EXTT1=
EXTT2=
EXTT3=
EXTT4=
EXTT5=
EXTT6=
EXTT7=
EXTT8=
EXTT9=
EXTT10=
EXTT11=
EXTT12=
EXTT13=
EXTT14=
EXTT15=
EXTT16=
EXTT17=
EXTT18=
EXTT19=
PLAYORDER=
